<?xml version="1.0" standalone="no"?>
<!DOCTYPE svg PUBLIC "-//W3C//DTD SVG 20010904//EN"
 "http://www.w3.org/TR/2001/REC-SVG-20010904/DTD/svg10.dtd">
<svg version="1.0" xmlns="http://www.w3.org/2000/svg"
 width="750.000000pt" height="860.000000pt" viewBox="0 0 750.000000 860.000000"
 preserveAspectRatio="xMidYMid meet">

<g transform="translate(0.000000,860.000000) scale(0.100000,-0.100000)"
fill="#000000" stroke="none">
<path d="M3675 8473 c-44 -25 -109 -62 -145 -83 -86 -50 -414 -236 -515 -292
-44 -25 -159 -90 -255 -145 -237 -135 -307 -176 -360 -205 -25 -14 -94 -54
-155 -88 -60 -35 -139 -79 -175 -100 -36 -20 -166 -94 -290 -165 -124 -70
-259 -147 -301 -171 -42 -23 -121 -68 -175 -100 -55 -31 -153 -87 -219 -124
-66 -37 -169 -96 -230 -130 -138 -79 -210 -120 -355 -202 -63 -35 -164 -93
-225 -128 -60 -35 -133 -76 -161 -92 l-52 -28 -5 -848 c-8 -1481 -8 -3392 2
-3392 5 0 64 -32 132 -71 209 -121 591 -341 638 -367 25 -14 68 -38 95 -55 28
-17 80 -47 116 -67 36 -20 82 -46 103 -58 286 -165 664 -382 847 -487 113 -65
295 -170 405 -233 110 -63 274 -158 365 -210 91 -52 194 -112 230 -132 36 -20
126 -72 200 -115 74 -43 164 -94 200 -115 36 -21 103 -60 150 -87 47 -28 110
-64 141 -82 l57 -31 108 61 c60 34 177 100 259 146 83 47 179 102 215 123 82
47 415 236 810 460 346 196 491 278 570 325 30 18 118 67 195 110 77 43 183
103 235 133 163 94 220 127 375 214 83 47 281 160 440 250 160 91 336 191 391
222 l101 57 8 2110 c4 1197 4 2114 -1 2119 -5 5 -83 51 -174 103 -91 52 -241
138 -335 192 -93 55 -199 115 -235 135 -36 20 -141 81 -235 135 -93 54 -199
115 -235 135 -36 20 -126 72 -200 115 -74 43 -165 95 -202 116 -38 22 -98 57
-135 78 -203 117 -274 158 -304 176 -19 10 -59 33 -89 50 -61 34 -480 276
-630 363 -52 31 -124 72 -160 92 -36 20 -82 46 -103 58 -135 78 -189 109 -242
140 -33 19 -80 46 -105 60 -25 14 -102 58 -172 99 -70 40 -129 73 -130 72 -2
0 -39 -20 -83 -46z m-2744 -3693 c88 -17 194 -73 254 -134 102 -105 167 -280
169 -454 l1 -83 -482 1 c-285 0 -484 -3 -487 -9 -10 -15 14 -160 35 -216 25
-67 77 -140 130 -182 95 -75 252 -102 375 -65 124 38 195 100 240 210 l22 54
78 0 c77 0 79 -1 76 -24 -6 -54 -78 -174 -142 -239 -111 -113 -235 -155 -430
-146 -160 7 -260 44 -358 132 -210 189 -251 624 -84 900 73 122 200 218 328
249 71 17 201 20 275 6z m2283 -10 c188 -48 303 -164 368 -370 21 -67 23 -94
23 -255 -1 -168 -3 -185 -28 -260 -85 -256 -269 -395 -522 -395 -155 0 -290
53 -391 154 l-64 64 0 -332 c0 -183 -2 -335 -4 -337 -2 -2 -36 -3 -75 -1 l-71
4 0 859 0 859 75 0 75 0 0 -107 1 -108 21 30 c37 52 113 119 169 150 122 66
277 83 423 45z m1066 -58 l0 -78 -47 -3 c-168 -8 -280 -95 -335 -261 -21 -61
-22 -89 -28 -455 l-5 -390 -72 -3 -73 -3 0 621 0 620 75 0 75 0 0 -112 0 -113
31 55 c72 131 180 195 332 199 l47 1 0 -78z m648 63 c84 -20 154 -57 215 -113
116 -109 173 -249 192 -469 l7 -83 -488 -2 -489 -3 0 -60 c1 -127 72 -273 170
-347 75 -57 132 -73 250 -72 79 0 112 5 157 23 82 32 155 101 193 184 l32 69
79 0 c91 1 90 4 45 -95 -65 -144 -168 -240 -308 -289 -59 -20 -87 -23 -208
-23 -126 1 -147 3 -212 27 -40 15 -92 40 -115 56 -120 83 -205 225 -234 392
-19 111 -14 281 11 374 59 217 219 384 413 430 76 19 212 19 290 1z m1037 4
c172 -32 282 -136 328 -311 8 -31 12 -59 9 -62 -3 -3 -38 -6 -79 -6 -69 0 -73
1 -73 23 0 35 -44 119 -81 154 -63 59 -120 78 -244 78 -134 0 -186 -17 -243
-79 -72 -78 -67 -184 10 -250 52 -45 106 -65 294 -111 209 -52 292 -85 358
-146 70 -63 91 -115 91 -224 0 -68 -4 -89 -28 -137 -50 -101 -156 -170 -310
-202 -89 -19 -223 -21 -299 -5 -189 40 -325 183 -351 372 l-6 37 80 0 c63 0
79 -3 79 -15 0 -38 47 -133 88 -177 65 -70 128 -92 267 -92 127 -1 195 17 252
68 98 85 95 237 -5 299 -56 36 -113 54 -267 87 -244 53 -319 84 -392 163 -50
54 -67 102 -67 192 0 169 101 290 284 339 66 18 223 20 305 5z m1016 -3 c181
-39 289 -152 324 -339 l7 -37 -74 0 -75 0 -13 43 c-43 144 -125 204 -294 214
-146 9 -246 -29 -294 -112 -18 -32 -22 -52 -20 -100 7 -118 68 -158 353 -231
99 -25 212 -61 252 -79 132 -61 194 -152 196 -283 2 -210 -175 -347 -463 -360
-132 -5 -199 6 -288 48 -131 62 -214 175 -236 323 l-7 47 75 0 c74 0 76 -1 82
-27 12 -49 50 -127 79 -161 59 -70 187 -109 327 -99 163 11 271 99 271 220 0
129 -73 180 -343 238 -244 53 -333 89 -395 162 -63 73 -83 194 -50 304 18 61
86 141 154 181 99 58 286 79 432 48z m-5438 -48 c13 -18 92 -129 175 -246
l151 -213 178 246 178 245 93 0 c50 0 92 -3 92 -6 0 -3 -17 -27 -38 -53 -21
-25 -119 -152 -217 -281 -98 -129 -182 -240 -187 -247 -9 -12 7 -35 275 -396
56 -76 121 -165 145 -198 l43 -59 -89 0 -89 0 -187 263 c-104 144 -191 263
-195 264 -3 1 -44 -51 -91 -115 -46 -64 -133 -183 -193 -264 l-109 -148 -84 0
c-46 0 -84 4 -84 9 0 4 68 98 151 207 83 110 189 249 236 311 55 73 82 117 77
125 -15 24 -396 533 -415 554 -11 11 -19 23 -19 27 0 4 40 7 89 7 90 0 90 0
114 -32z"/>
<path d="M690 4645 c-144 -41 -253 -170 -293 -347 l-15 -68 409 0 409 0 0 29
c0 155 -93 307 -227 368 -71 33 -201 41 -283 18z"/>
<path d="M2912 4645 c-192 -54 -305 -238 -306 -500 0 -182 45 -307 150 -411
72 -72 142 -104 245 -111 213 -17 381 117 435 344 20 82 22 263 4 348 -28 139
-105 242 -225 301 -64 32 -85 37 -162 40 -58 3 -106 -1 -141 -11z"/>
<path d="M4669 4646 c-98 -26 -193 -106 -242 -203 -25 -49 -67 -174 -67 -199
0 -12 66 -14 410 -14 l410 0 0 23 c-1 84 -46 208 -102 279 -80 102 -263 154
-409 114z"/>
</g>
</svg>
